<svg xmlns="http://www.w3.org/2000/svg" width="20" height="20" viewBox="0 0 48 48">
  <path fill="#FFC107" d="M43.611 20.083H42V20H24v8h11.303C33.676 31.659 29.223 35 24 35c-6.627 0-12-5.373-12-12s5.373-12 12-12c3.059 0 5.84 1.154 7.938 3.042l5.657-5.657C33.642 5.053 28.999 3 24 3 12.954 3 4 11.954 4 23s8.954 20 20 20s20-8.954 20-20c0-1.341-.138-2.651-.389-3.917z"/>
  <path fill="#FF3D00" d="M6.306 14.691l6.571 4.814C14.655 16.33 18.994 13 24 13c3.059 0 5.84 1.154 7.938 3.042l5.657-5.657C33.642 5.053 28.999 3 24 3C16.318 3 9.727 7.337 6.306 14.691z"/>
  <path fill="#4CAF50" d="M24 43c5.166 0 9.843-1.977 13.409-5.193l-6.191-5.238C29.154 34.091 26.723 35 24 35c-5.202 0-9.646-3.317-11.292-7.946l-6.54 5.038C9.542 38.642 16.227 43 24 43c8.837 0 16-7.163 16-16c0-1.341-.138-2.651-.389-3.917z"/>
</svg>
