<svg xmlns="http://www.w3.org/2000/svg" width="20" height="20" viewBox="0 0 48 48">
  <path fill="#FFC107" d="M43.6 20.5H42V20H24v8h11.3C33.6 32.4 29.2 36 24 36c-6.6 0-12-5.4-12-12s5.4-12 12-12c3 0 5.7 1.1 7.8 2.9l5.7-5.7C33.7 6.1 29.1 4 24 4 12.9 4 4 12.9 4 24s8.9 20 20 20 20-8.9 20-20c0-1.3-.1-2.5-.4-3.5z"/>
  <path fill="#FF3D00" d="M6.3 14.7l6.6 4.8C14.5 16.2 18.9 12 24 12c3 0 5.7 1.1 7.8 2.9l5.7-5.7C33.7 6.1 29.1 4 24 4 15.3 4 7.9 9 6.3 14.7z"/>
  <path fill="#4CAF50" d="M24 44c5.1 0 9.7-1.9 13.2-5l-6.1-5c-2 1.4-4.6 2.2-7.1 2.2-5.1 0-9.5-3.3-11-7.9l-6.6 5c2.7 7 9.4 10.7 17.6 10.7z"/>
  <path fill="#1976D2" d="M43.6 20.5H42V20H24v8h11.3c-1.7 4.4-6.1 8-11.3 8-5.1 0-9.5-3.3-11-7.9l-6.6 5C9.7 39.5 16.4 43.2 24 43.2c11.1 0 20-8.9 20-19.9 0-1.3-.1-2.5-.4-3.5z"/>
</svg>
